<?xml version="1.0" encoding="iso-8859-1"?>
<!-- Generator: Adobe Illustrator 19.0.0, SVG Export Plug-In . SVG Version: 6.00 Build 0)  -->
<svg version="1.1" id="Layer_1" xmlns="http://www.w3.org/2000/svg" xmlns:xlink="http://www.w3.org/1999/xlink" x="0px" y="0px"
	 viewBox="0 0 512 512" style="enable-background:new 0 0 512 512;" xml:space="preserve">
<g>
	<g>
		<g>
			<path d="M314.413,335.797H202.578v63.722h111.835V335.797z M298.803,361.106h-49.086v15.61h49.086v7.195h-80.615v-7.195h16.959
				v-15.61h-16.959v-9.699h80.615V361.106z"/>
			<polygon points="333.918,492.814 312.702,407.935 281.977,407.935 281.977,423.545 300.514,423.545 311.373,466.994 
				282.795,455.572 233.938,471.854 204.174,465.895 216.27,423.545 232.47,423.545 226.867,445.953 242.011,449.739 
				248.559,423.545 266.367,423.545 266.367,407.935 204.495,407.935 184.517,477.878 224.241,485.832 219.015,501.509 
				233.825,506.446 240.612,486.084 249.717,483.049 249.717,512 265.326,512 265.326,477.847 265.712,477.719 283.878,507.993 
				297.263,499.962 280.883,472.662 282.308,472.188 			"/>
			<rect x="249.714" y="0" width="16.65" height="15.61"/>
			<path d="M408.589,70.938L316.3,43.867c-0.009-0.002-0.019-0.005-0.027-0.008l-4.395,14.979l0.021,0.006
				c8.585,2.532,13.519,11.572,10.999,20.163l-11.286,38.473c-4.187,14.275,2.123,29.177,14.389,36.412l-5.461,18.617l-44.43-29.567
				l-10.786,2.323v-19.127c14.295-3.137,25.03-15.893,25.03-31.117V54.927c0-8.961,7.291-16.252,16.252-16.252v-15.61h-96.225v15.61
				c8.961,0,16.252,7.291,16.252,16.252V95.02c0,14.523,9.772,26.8,23.083,30.621v22.983l-56.963,12.264l-6.757-23.034
				c12.266-7.236,18.576-22.138,14.389-36.413l-11.286-38.472c-2.519-8.592,2.414-17.632,10.999-20.163l0.022-0.006l-4.394-14.979
				c-0.009,0.002-0.019,0.005-0.027,0.008l-92.215,27.05c-0.03,0.009-0.06,0.018-0.092,0.027l4.394,14.979
				c8.596-2.52,17.646,2.422,20.169,11.021l11.286,38.473c4.07,13.876,16.806,22.896,30.588,22.896c0.394,0,0.791-0.027,1.186-0.042
				l6.44,21.95l-25.338,5.455l52.638,158.166h37.678v-15.61h-26.421l-43.586-130.963l93.229-20.072l-4.676,45.321l15.528,1.602
				l4.454-43.166l40.033,26.641l29.347-5.724l-49.074,126.361h-43.224v15.61h53.908l63.19-162.712l-38.349,7.48l4.196-14.303
				c0.395,0.015,0.792,0.042,1.186,0.042c13.779,0,26.518-9.021,30.588-22.896l11.285-38.473
				c2.523-8.599,11.571-13.544,20.169-11.02l4.394-14.979C408.602,70.941,408.595,70.939,408.589,70.938z M174.387,126.003
				c-8.598,2.521-17.646-2.421-20.169-11.019l-11.286-38.473c-1.669-5.691-4.798-10.567-8.859-14.337l39.757-11.663
				c-1.38,5.367-1.38,11.16,0.29,16.851l11.286,38.472C187.928,114.433,182.985,123.481,174.387,126.003z M242.244,95.021V54.927
				c0-5.932-1.63-11.491-4.464-16.252h41.431c-2.835,4.761-4.464,10.32-4.464,16.252V95.02c0,8.961-7.29,16.252-16.252,16.252
				C249.534,111.272,242.244,103.981,242.244,95.021z M369.067,92.548l-11.285,38.473c-2.523,8.599-11.573,13.542-20.169,11.021
				c-8.599-2.523-13.542-11.57-11.02-20.169L337.878,83.4c1.669-5.692,1.67-11.485,0.29-16.851l39.758,11.663
				C373.866,81.981,370.737,86.857,369.067,92.548z"/>
			
				<rect x="359.003" y="34.007" transform="matrix(0.9596 0.2815 -0.2815 0.9596 26.6105 -101.6219)" width="16.038" height="15.61"/>
			
				<rect x="137.168" y="17.748" transform="matrix(0.2814 0.9596 -0.9596 0.2814 128.9036 -120.5983)" width="15.61" height="16.038"/>
		</g>
	</g>
</g>
<g>
</g>
<g>
</g>
<g>
</g>
<g>
</g>
<g>
</g>
<g>
</g>
<g>
</g>
<g>
</g>
<g>
</g>
<g>
</g>
<g>
</g>
<g>
</g>
<g>
</g>
<g>
</g>
<g>
</g>
</svg>
