<?xml version="1.0" encoding="iso-8859-1"?>
<!-- Generator: Adobe Illustrator 19.0.0, SVG Export Plug-In . SVG Version: 6.00 Build 0)  -->
<svg version="1.1" id="Capa_1" xmlns="http://www.w3.org/2000/svg" xmlns:xlink="http://www.w3.org/1999/xlink" x="0px" y="0px"
	 viewBox="0 0 60 60" style="enable-background:new 0 0 60 60;" xml:space="preserve">
<g>
	<g>
		<path d="M59.7,30.3l-8-9C51.6,21.1,51.3,21,51,21h-7V8c0-0.6-0.4-1-1-1H20v2h22v13v15H19v2h23v4H22v2h21c0.6,0,1-0.4,1-1v-6V23
			h6.6l6.2,7H50v2h8v12h2V31C60,30.7,59.9,30.5,59.7,30.3z"/>
		<path d="M14,41c-3.3,0-6,2.7-6,6s2.7,6,6,6s6-2.7,6-6S17.3,41,14,41z M14,51c-2.2,0-4-1.8-4-4s1.8-4,4-4s4,1.8,4,4S16.2,51,14,51z
			"/>
		<path d="M51,41c-3.3,0-6,2.7-6,6s2.7,6,6,6s6-2.7,6-6S54.3,41,51,41z M51,51c-2.2,0-4-1.8-4-4s1.8-4,4-4s4,1.8,4,4S53.2,51,51,51z
			"/>
		<rect x="50" y="35" width="3" height="2"/>
		<circle cx="14" cy="47" r="2"/>
		<circle cx="51" cy="47" r="2"/>
		<rect y="43" width="6" height="2"/>
		<rect y="7" width="17" height="2"/>
		<rect x="3" y="15" width="19" height="2"/>
		<rect x="11" y="23" width="19" height="2"/>
		<rect y="32" width="14" height="2"/>
		<rect x="4" y="23" width="4" height="2"/>
	</g>
</g>
<g>
</g>
<g>
</g>
<g>
</g>
<g>
</g>
<g>
</g>
<g>
</g>
<g>
</g>
<g>
</g>
<g>
</g>
<g>
</g>
<g>
</g>
<g>
</g>
<g>
</g>
<g>
</g>
<g>
</g>
</svg>
